<svg xmlns="http://www.w3.org/2000/svg" xmlns:xlink="http://www.w3.org/1999/xlink" aria-hidden="true" role="img" class="iconify iconify--logos" width="31.88" height="32" preserveAspectRatio="xMidYMid meet" viewBox="0 0 256 257"><defs><linearGradient id="IconifyId181e5fbd844b167f1" x1="-12.486%" x2="115.232%" y1="9.925%" y2="83.336%"><stop offset="0%" stop-color="#41D1FF"></stop><stop offset="100%" stop-color="#BD34FE"></stop></linearGradient><linearGradient id="IconifyId181e5fbd844b167f2" x1="-34.645%" x2="107.78%" y1="36.506%" y2="46.995%"><stop offset="0%" stop-color="#FFEA83"></stop><stop offset="8.333%" stop-color="#FFDD35"></stop><stop offset="100%" stop-color="#FFA800"></stop></linearGradient></defs><path fill="url(#IconifyId181e5fbd844b167f1)" d="M255.803 134.562c-2.21 4.051-58.471 104.41-58.471 104.41l-28.559 10.233L111 25.19l105.49 10.354s37.311 90.357 39.313 99.018Z"></path><path fill="url(#IconifyId181e5fbd844b167f2)" d="M147.632 0s-3.793 1.816-17.599 15.642c-13.805 13.828-21.739 12.703-22.343 15.715C107.086 34.38 52.41 151.75 52.41 151.75l-44.444-60.7l12.472-14.902s19.888 1.3 25.344-4.285c5.456-5.586 11.713-21.459 11.713-21.459L147.632 0Z"></path></svg>
